<?xml version="1.0" encoding="UTF-8" standalone="no"?>
<!-- Created with Inkscape (http://www.inkscape.org/) -->

<svg
   version="1.1"
   id="svg5154"
   xml:space="preserve"
   width="682.66669"
   height="682.66669"
   viewBox="0 0 682.66669 682.66669"
   xmlns="http://www.w3.org/2000/svg"
   xmlns:svg="http://www.w3.org/2000/svg"><defs
     id="defs5158"><clipPath
       clipPathUnits="userSpaceOnUse"
       id="clipPath5174"><path
         d="M 0,512 H 512 V 0 H 0 Z"
         id="path5172" /></clipPath></defs><g
     id="g5160"
     transform="matrix(1.3333333,0,0,-1.3333333,0,682.66667)"><g
       id="g5162"
       transform="translate(395.2261,150.5801)"><path
         d="M 0,0 -92.818,-95.387 V 157.287 L 0,143.117 Z"
         style="fill:#4972ff;fill-opacity:1;fill-rule:nonzero;stroke:none"
         id="path5164" /></g><path
       d="M 302.408,55.193 H 100.063 v 252.674 h 202.345 z"
       style="fill:#7092ff;fill-opacity:1;fill-rule:nonzero;stroke:none"
       id="path5166" /><g
       id="g5168"><g
         id="g5170"
         clip-path="url(#clipPath5174)"><g
           id="g5176"
           transform="translate(504.2451,476.3408)"><path
             d="m 0,0 v -47.625 c 0,-1.482 -0.791,-2.854 -2.077,-3.593 l -41.698,-24.049 c -0.642,-0.371 -1.356,-0.557 -2.072,-0.557 v 51.987 L -0.608,2.255 h 0.002 C -0.216,1.581 0,0.806 0,0"
             style="fill:#4972ff;fill-opacity:1;fill-rule:nonzero;stroke:none"
             id="path5178" /></g><g
           id="g5180"
           transform="translate(503.6367,478.5957)"><path
             d="M 0,0 -45.239,-26.092 -90.524,0.025 c 0.356,0.617 0.873,1.14 1.512,1.511 0.005,0.002 0.011,0.006 0.015,0.008 l 41.701,23.813 c 1.273,0.73 2.839,0.73 4.114,0 L -1.652,1.642 c 0.008,-0.006 0.019,-0.011 0.027,-0.017 0,0 0.002,0 0.002,-0.002 C -0.937,1.225 -0.383,0.663 0,0"
             style="fill:#bfd1ff;fill-opacity:1;fill-rule:nonzero;stroke:none"
             id="path5182" /></g><g
           id="g5184"
           transform="translate(458.3979,452.5039)"><path
             d="m 0,0 v -51.987 c -0.716,0 -1.432,0.186 -2.074,0.557 l -41.699,24.049 c -1.284,0.739 -2.076,2.11 -2.076,3.593 v 47.82 l 0.563,2.085 z"
             style="fill:#7092ff;fill-opacity:1;fill-rule:nonzero;stroke:none"
             id="path5186" /></g><g
           id="g5188"
           transform="translate(7.2451,504.5)"><path
             d="M 0,0 V -497"
             style="fill:none;stroke:#000000;stroke-width:15;stroke-linecap:round;stroke-linejoin:round;stroke-miterlimit:10;stroke-dasharray:none;stroke-opacity:1"
             id="path5190" /></g><g
           id="g5192"
           transform="translate(7.2451,504.5)"><path
             d="M 0,0 370.637,-135.525"
             style="fill:none;stroke:#000000;stroke-width:15;stroke-linecap:round;stroke-linejoin:round;stroke-miterlimit:10;stroke-dasharray:none;stroke-opacity:1"
             id="path5194" /></g><g
           id="g5196"
           transform="translate(7.2451,380.25)"><path
             d="M 0,0 370.637,-53.951"
             style="fill:none;stroke:#000000;stroke-width:15;stroke-linecap:round;stroke-linejoin:round;stroke-miterlimit:10;stroke-dasharray:none;stroke-opacity:1"
             id="path5198" /></g><g
           id="g5200"
           transform="translate(7.2451,256)"><path
             d="M 0,0 92.818,6.918"
             style="fill:none;stroke:#000000;stroke-width:15;stroke-linecap:round;stroke-linejoin:round;stroke-miterlimit:10;stroke-dasharray:none;stroke-opacity:1"
             id="path5202" /></g><g
           id="g5204"
           transform="translate(7.2451,131.75)"><path
             d="M 0,0 92.818,27.347"
             style="fill:none;stroke:#000000;stroke-width:15;stroke-linecap:round;stroke-linejoin:round;stroke-miterlimit:10;stroke-dasharray:none;stroke-opacity:1"
             id="path5206" /></g><g
           id="g5208"
           transform="translate(7.2451,7.5)"><path
             d="M 0,0 92.818,47.693"
             style="fill:none;stroke:#000000;stroke-width:15;stroke-linecap:round;stroke-linejoin:round;stroke-miterlimit:10;stroke-dasharray:none;stroke-opacity:1"
             id="path5210" /></g><g
           id="g5212"
           transform="translate(255.9995,7.5)"><path
             d="M 0,0 185.318,190.772"
             style="fill:none;stroke:#000000;stroke-width:15;stroke-linecap:round;stroke-linejoin:round;stroke-miterlimit:10;stroke-dasharray:none;stroke-opacity:1"
             id="path5214" /></g><g
           id="g5216"
           transform="translate(504.7539,7.5)"><path
             d="M 0,0 V 190.772"
             style="fill:none;stroke:#000000;stroke-width:15;stroke-linecap:round;stroke-linejoin:round;stroke-miterlimit:10;stroke-dasharray:none;stroke-opacity:1"
             id="path5218" /></g><g
           id="g5220"
           transform="translate(7.2451,7.5)"><path
             d="M 0,0 H 497.509"
             style="fill:none;stroke:#000000;stroke-width:15;stroke-linecap:round;stroke-linejoin:round;stroke-miterlimit:10;stroke-dasharray:none;stroke-opacity:1"
             id="path5222" /></g><g
           id="g5224"
           transform="translate(100.063,55.1934)"><path
             d="M 0,0 H 404.691"
             style="fill:none;stroke:#000000;stroke-width:15;stroke-linecap:round;stroke-linejoin:round;stroke-miterlimit:10;stroke-dasharray:none;stroke-opacity:1"
             id="path5226" /></g><g
           id="g5228"
           transform="translate(504.7549,102.8896)"><path
             d="m 0,0 h -155.94 -0.16"
             style="fill:none;stroke:#000000;stroke-width:15;stroke-linecap:round;stroke-linejoin:round;stroke-miterlimit:10;stroke-dasharray:none;stroke-opacity:1"
             id="path5230" /></g><g
           id="g5232"
           transform="translate(504.7549,150.5801)"><path
             d="m 0,0 h -109.53 -0.24"
             style="fill:none;stroke:#000000;stroke-width:15;stroke-linecap:round;stroke-linejoin:round;stroke-miterlimit:10;stroke-dasharray:none;stroke-opacity:1"
             id="path5234" /></g><g
           id="g5236"
           transform="translate(395.2261,198.2725)"><path
             d="M 0,0 H 109.528"
             style="fill:none;stroke:#000000;stroke-width:15;stroke-linecap:round;stroke-linejoin:round;stroke-miterlimit:10;stroke-dasharray:none;stroke-opacity:1"
             id="path5238" /></g><g
           id="g5240"
           transform="translate(100.063,55.1934)"><path
             d="M 0,0 V 415.367"
             style="fill:none;stroke:#000000;stroke-width:15;stroke-linecap:round;stroke-linejoin:round;stroke-miterlimit:10;stroke-dasharray:none;stroke-opacity:1"
             id="path5242" /></g><g
           id="g5244"
           transform="translate(192.5635,307.8672)"><path
             d="M 0,0 V 128.87"
             style="fill:none;stroke:#000000;stroke-width:15;stroke-linecap:round;stroke-linejoin:round;stroke-miterlimit:10;stroke-dasharray:none;stroke-opacity:1"
             id="path5246" /></g><g
           id="g5248"
           transform="translate(285.6987,307.8672)"><path
             d="M 0,0 V 93.778"
             style="fill:none;stroke:#000000;stroke-width:15;stroke-linecap:round;stroke-linejoin:round;stroke-miterlimit:10;stroke-dasharray:none;stroke-opacity:1"
             id="path5250" /></g><g
           id="g5252"
           transform="translate(377.8818,296.3447)"><path
             d="M 0,0 V 72.63"
             style="fill:none;stroke:#000000;stroke-width:15;stroke-linecap:round;stroke-linejoin:round;stroke-miterlimit:10;stroke-dasharray:none;stroke-opacity:1"
             id="path5254" /></g><g
           id="g5256"
           transform="translate(302.4082,307.8672)"><path
             d="M 0,0 92.818,-14.17 V -157.287 L 0,-252.674"
             style="fill:none;stroke:#000000;stroke-width:15;stroke-linecap:round;stroke-linejoin:round;stroke-miterlimit:10;stroke-dasharray:none;stroke-opacity:1"
             id="path5258" /></g><g
           id="g5260"
           transform="translate(302.4082,244.2168)"><path
             d="M 0,0 V -189.023 H -202.345 V 63.65 L 0,63.65 V 41.303"
             style="fill:none;stroke:#000000;stroke-width:15;stroke-linecap:round;stroke-linejoin:round;stroke-miterlimit:10;stroke-dasharray:none;stroke-opacity:1"
             id="path5262" /></g><g
           id="g5264"
           transform="translate(504.2451,476.3408)"><path
             d="m 0,0 v -47.625 c 0,-1.482 -0.791,-2.854 -2.077,-3.593 l -41.698,-24.049 c -0.642,-0.371 -1.356,-0.557 -2.072,-0.557 v 51.987 L -0.608,2.255 h 0.002 C -0.216,1.581 0,0.806 0,0 Z"
             style="fill:none;stroke:#000000;stroke-width:15;stroke-linecap:round;stroke-linejoin:round;stroke-miterlimit:10;stroke-dasharray:none;stroke-opacity:1"
             id="path5266" /></g><g
           id="g5268"
           transform="translate(503.6367,478.5957)"><path
             d="M 0,0 -45.239,-26.092 -90.524,0.025 c 0.356,0.617 0.873,1.14 1.512,1.511 0.005,0.002 0.011,0.006 0.015,0.008 l 41.701,23.813 c 1.273,0.73 2.839,0.73 4.114,0 L -1.652,1.642 c 0.008,-0.006 0.019,-0.011 0.027,-0.017 0,0 0.002,0 0.002,-0.002 C -0.937,1.225 -0.383,0.663 0,0 Z"
             style="fill:none;stroke:#000000;stroke-width:15;stroke-linecap:round;stroke-linejoin:round;stroke-miterlimit:10;stroke-dasharray:none;stroke-opacity:1"
             id="path5270" /></g><g
           id="g5272"
           transform="translate(458.3979,452.5039)"><path
             d="m 0,0 v -51.987 c -0.716,0 -1.432,0.186 -2.074,0.557 l -41.699,24.049 c -1.284,0.739 -2.076,2.11 -2.076,3.593 v 47.82 l 0.563,2.085 z"
             style="fill:none;stroke:#000000;stroke-width:15;stroke-linecap:round;stroke-linejoin:round;stroke-miterlimit:10;stroke-dasharray:none;stroke-opacity:1"
             id="path5274" /></g><g
           id="g5276"
           transform="translate(377.8818,452.5039)"><path
             d="M 0,0 H -39.33"
             style="fill:none;stroke:#000000;stroke-width:15;stroke-linecap:round;stroke-linejoin:round;stroke-miterlimit:10;stroke-dasharray:none;stroke-opacity:1"
             id="path5278" /></g><g
           id="g5280"
           transform="translate(458.3745,368.9746)"><path
             d="M 0,0 V -39.33"
             style="fill:none;stroke:#000000;stroke-width:15;stroke-linecap:round;stroke-linejoin:round;stroke-miterlimit:10;stroke-dasharray:none;stroke-opacity:1"
             id="path5282" /></g></g></g></g></svg>
