<svg id="Layer_1" enable-background="new 0 0 512 512" height="512" viewBox="0 0 512 512" width="512" xmlns="http://www.w3.org/2000/svg"><g><path d="m474.318 122.477-210.875-120.5c-4.611-2.636-10.273-2.636-14.885 0l-210.875 120.5c-4.674 2.67-7.558 7.641-7.558 13.023v241c0 5.383 2.884 10.353 7.558 13.023l210.875 120.5c2.306 1.318 4.874 1.977 7.442 1.977s5.137-.659 7.442-1.977l210.875-120.5c4.674-2.67 7.558-7.641 7.558-13.023v-241c0-5.383-2.884-10.353-7.557-13.023zm-218.318-90.2 180.642 103.223-180.642 103.224-180.641-103.224zm-195.875 129.071 180.875 103.357v206.447l-180.875-103.356zm210.875 309.804v-206.447l180.875-103.357v206.448z"/></g></svg>