<?xml version="1.0" encoding="UTF-8" standalone="no"?>
<!-- Created with Inkscape (http://www.inkscape.org/) -->

<svg
   version="1.1"
   id="svg3252"
   xml:space="preserve"
   width="682.66669"
   height="682.66669"
   viewBox="0 0 682.66669 682.66669"
   xmlns="http://www.w3.org/2000/svg"
   xmlns:svg="http://www.w3.org/2000/svg"><defs
     id="defs3256"><clipPath
       clipPathUnits="userSpaceOnUse"
       id="clipPath3266"><path
         d="M 0,512 H 512 V 0 H 0 Z"
         id="path3264" /></clipPath><clipPath
       clipPathUnits="userSpaceOnUse"
       id="clipPath3350"><path
         d="M 0,512 H 512 V 0 H 0 Z"
         id="path3348" /></clipPath></defs><g
     id="g3258"
     transform="matrix(1.3333333,0,0,-1.3333333,0,682.66667)"><g
       id="g3260"><g
         id="g3262"
         clip-path="url(#clipPath3266)"><g
           id="g3268"
           transform="translate(7.2451,504.5)"><path
             d="M 0,0 V -497"
             style="fill:none;stroke:#000000;stroke-width:15;stroke-linecap:round;stroke-linejoin:round;stroke-miterlimit:10;stroke-dasharray:none;stroke-opacity:1"
             id="path3270" /></g><g
           id="g3272"
           transform="translate(7.2451,504.5)"><path
             d="M 0,0 370.637,-135.525"
             style="fill:none;stroke:#000000;stroke-width:15;stroke-linecap:round;stroke-linejoin:round;stroke-miterlimit:10;stroke-dasharray:none;stroke-opacity:1"
             id="path3274" /></g><g
           id="g3276"
           transform="translate(7.2451,380.25)"><path
             d="M 0,0 370.637,-53.951"
             style="fill:none;stroke:#000000;stroke-width:15;stroke-linecap:round;stroke-linejoin:round;stroke-miterlimit:10;stroke-dasharray:none;stroke-opacity:1"
             id="path3278" /></g><g
           id="g3280"
           transform="translate(7.2451,256)"><path
             d="M 0,0 92.818,6.918"
             style="fill:none;stroke:#000000;stroke-width:15;stroke-linecap:round;stroke-linejoin:round;stroke-miterlimit:10;stroke-dasharray:none;stroke-opacity:1"
             id="path3282" /></g><g
           id="g3284"
           transform="translate(7.2451,131.75)"><path
             d="M 0,0 92.818,27.347"
             style="fill:none;stroke:#000000;stroke-width:15;stroke-linecap:round;stroke-linejoin:round;stroke-miterlimit:10;stroke-dasharray:none;stroke-opacity:1"
             id="path3286" /></g><g
           id="g3288"
           transform="translate(7.2451,7.5)"><path
             d="M 0,0 92.818,47.693"
             style="fill:none;stroke:#000000;stroke-width:15;stroke-linecap:round;stroke-linejoin:round;stroke-miterlimit:10;stroke-dasharray:none;stroke-opacity:1"
             id="path3290" /></g><g
           id="g3292"
           transform="translate(255.9995,7.5)"><path
             d="M 0,0 185.318,190.772"
             style="fill:none;stroke:#000000;stroke-width:15;stroke-linecap:round;stroke-linejoin:round;stroke-miterlimit:10;stroke-dasharray:none;stroke-opacity:1"
             id="path3294" /></g><g
           id="g3296"
           transform="translate(504.7539,7.5)"><path
             d="M 0,0 V 190.772"
             style="fill:none;stroke:#000000;stroke-width:15;stroke-linecap:round;stroke-linejoin:round;stroke-miterlimit:10;stroke-dasharray:none;stroke-opacity:1"
             id="path3298" /></g><g
           id="g3300"
           transform="translate(7.2451,7.5)"><path
             d="M 0,0 H 497.509"
             style="fill:none;stroke:#000000;stroke-width:15;stroke-linecap:round;stroke-linejoin:round;stroke-miterlimit:10;stroke-dasharray:none;stroke-opacity:1"
             id="path3302" /></g><g
           id="g3304"
           transform="translate(100.063,55.1934)"><path
             d="M 0,0 H 404.691"
             style="fill:none;stroke:#000000;stroke-width:15;stroke-linecap:round;stroke-linejoin:round;stroke-miterlimit:10;stroke-dasharray:none;stroke-opacity:1"
             id="path3306" /></g><g
           id="g3308"
           transform="translate(504.7549,102.8896)"><path
             d="m 0,0 h -155.94 -0.16"
             style="fill:none;stroke:#000000;stroke-width:15;stroke-linecap:round;stroke-linejoin:round;stroke-miterlimit:10;stroke-dasharray:none;stroke-opacity:1"
             id="path3310" /></g><g
           id="g3312"
           transform="translate(504.7549,150.5801)"><path
             d="m 0,0 h -109.53 -0.24"
             style="fill:none;stroke:#000000;stroke-width:15;stroke-linecap:round;stroke-linejoin:round;stroke-miterlimit:10;stroke-dasharray:none;stroke-opacity:1"
             id="path3314" /></g><g
           id="g3316"
           transform="translate(395.2261,198.2725)"><path
             d="M 0,0 H 109.528"
             style="fill:none;stroke:#000000;stroke-width:15;stroke-linecap:round;stroke-linejoin:round;stroke-miterlimit:10;stroke-dasharray:none;stroke-opacity:1"
             id="path3318" /></g></g></g><g
       id="g3320"
       transform="translate(100.063,55.1934)"><path
         d="M 0,0 V 415.367"
         style="fill:none;stroke:#000000;stroke-width:15;stroke-linecap:round;stroke-linejoin:round;stroke-miterlimit:10;stroke-dasharray:none;stroke-opacity:1"
         id="path3322" /></g><g
       id="g3324"
       transform="translate(192.5635,307.8672)"><path
         d="M 0,0 V 128.87"
         style="fill:none;stroke:#000000;stroke-width:15;stroke-linecap:round;stroke-linejoin:round;stroke-miterlimit:10;stroke-dasharray:none;stroke-opacity:1"
         id="path3326" /></g><g
       id="g3328"
       transform="translate(285.6987,307.8672)"><path
         d="M 0,0 V 93.778"
         style="fill:none;stroke:#000000;stroke-width:15;stroke-linecap:round;stroke-linejoin:round;stroke-miterlimit:10;stroke-dasharray:none;stroke-opacity:1"
         id="path3330" /></g><g
       id="g3332"
       transform="translate(377.8818,296.3447)"><path
         d="M 0,0 V 72.63"
         style="fill:none;stroke:#000000;stroke-width:15;stroke-linecap:round;stroke-linejoin:round;stroke-miterlimit:10;stroke-dasharray:none;stroke-opacity:1"
         id="path3334" /></g><g
       id="g3336"
       transform="translate(302.4082,307.8672)"><path
         d="M 0,0 92.818,-14.17 V -157.287 L 0,-252.674"
         style="fill:none;stroke:#000000;stroke-width:15;stroke-linecap:round;stroke-linejoin:round;stroke-miterlimit:10;stroke-dasharray:none;stroke-opacity:1"
         id="path3338" /></g><g
       id="g3340"
       transform="translate(302.4082,244.2168)"><path
         d="M 0,0 V -189.023 H -202.345 V 63.65 L 0,63.65 V 41.303"
         style="fill:none;stroke:#000000;stroke-width:15;stroke-linecap:round;stroke-linejoin:round;stroke-miterlimit:10;stroke-dasharray:none;stroke-opacity:1"
         id="path3342" /></g><g
       id="g3344"><g
         id="g3346"
         clip-path="url(#clipPath3350)"><g
           id="g3352"
           transform="translate(504.2451,476.3408)"><path
             d="m 0,0 v -47.625 c 0,-1.482 -0.791,-2.854 -2.077,-3.593 l -41.698,-24.049 c -0.642,-0.371 -1.356,-0.557 -2.072,-0.557 v 51.987 L -0.608,2.255 h 0.002 C -0.216,1.581 0,0.806 0,0 Z"
             style="fill:none;stroke:#000000;stroke-width:15;stroke-linecap:round;stroke-linejoin:round;stroke-miterlimit:10;stroke-dasharray:none;stroke-opacity:1"
             id="path3354" /></g><g
           id="g3356"
           transform="translate(503.6367,478.5957)"><path
             d="M 0,0 -45.239,-26.092 -90.524,0.025 c 0.356,0.617 0.873,1.14 1.512,1.511 0.005,0.002 0.011,0.006 0.015,0.008 l 41.701,23.813 c 1.273,0.73 2.839,0.73 4.114,0 L -1.652,1.642 c 0.008,-0.006 0.019,-0.011 0.027,-0.017 0,0 0.002,0 0.002,-0.002 C -0.937,1.225 -0.383,0.663 0,0 Z"
             style="fill:none;stroke:#000000;stroke-width:15;stroke-linecap:round;stroke-linejoin:round;stroke-miterlimit:10;stroke-dasharray:none;stroke-opacity:1"
             id="path3358" /></g><g
           id="g3360"
           transform="translate(458.3979,452.5039)"><path
             d="m 0,0 v -51.987 c -0.716,0 -1.432,0.186 -2.074,0.557 l -41.699,24.049 c -1.284,0.739 -2.076,2.11 -2.076,3.593 v 47.82 l 0.563,2.085 z"
             style="fill:none;stroke:#000000;stroke-width:15;stroke-linecap:round;stroke-linejoin:round;stroke-miterlimit:10;stroke-dasharray:none;stroke-opacity:1"
             id="path3362" /></g><g
           id="g3364"
           transform="translate(377.8818,452.5039)"><path
             d="M 0,0 H -39.33"
             style="fill:none;stroke:#000000;stroke-width:15;stroke-linecap:round;stroke-linejoin:round;stroke-miterlimit:10;stroke-dasharray:none;stroke-opacity:1"
             id="path3366" /></g><g
           id="g3368"
           transform="translate(458.3745,368.9746)"><path
             d="M 0,0 V -39.33"
             style="fill:none;stroke:#000000;stroke-width:15;stroke-linecap:round;stroke-linejoin:round;stroke-miterlimit:10;stroke-dasharray:none;stroke-opacity:1"
             id="path3370" /></g></g></g></g></svg>
