<svg enable-background="new 0 0 28.999 32" viewBox="0 0 28.999 32" xmlns="http://www.w3.org/2000/svg"><g id="Layer_18"><g><g><g><path d="m26 32h-26v-32h17.414l8.586 8.586v3.317h-2v-2.489l-7.414-7.414h-14.586v28h22v-4.913h2z"/></g></g><g><g><path d="m25 10h-9v-9h2v7h7z"/></g></g><g><g><path d="m19.344 27.837h-4.243v-4.243l8.778-8.778c1.171-1.169 3.074-1.169 4.243 0s1.169 3.073 0 4.242zm-2.243-2h1.415l8.192-8.192c.39-.39.39-1.024 0-1.414-.39-.389-1.023-.391-1.415 0l-8.192 8.192z"/></g></g><g><g><path d="m23.586 16.352h2v4h-2z" transform="matrix(.707 -.707 .707 .707 -5.776 22.76)"/></g></g></g></g><g id="Layer_1"/></svg>