<svg fill="none" height="64" viewBox="0 0 64 64" width="64" xmlns="http://www.w3.org/2000/svg"><g fill="rgb(0,0,0)"><path d="m18 17c1.1046 0 2-.8954 2-2s-.8954-2-2-2-2 .8954-2 2 .8954 2 2 2z"/><path d="m20 25c0 1.1046-.8954 2-2 2s-2-.8954-2-2 .8954-2 2-2 2 .8954 2 2z"/><path d="m18 37c1.1046 0 2-.8954 2-2s-.8954-2-2-2-2 .8954-2 2 .8954 2 2 2z"/><path clip-rule="evenodd" d="m6 10c0-4.41828 3.58172-8 8-8h36c4.4183 0 8 3.58172 8 8v35.5c0 .0847-.0053.1681-.0155.25.0102.0819.0155.1653.0155.25 0 1.1046-.8954 2-2 2-.0771 0-.5378.0728-1.0919 1.0425-.5218.9131-.9081 2.3081-.9081 3.9575s.3863 3.0444.9081 3.9575c.5541.9697 1.0148 1.0425 1.0919 1.0425 1.1046 0 2 .8954 2 2s-.8954 2-2 2h-41c-4.9706 0-9-4.0294-9-9zm48 34h-39c-1.8501 0-3.5699.5583-5 1.5155v-35.5155c0-2.20914 1.7909-4 4-4h36c2.2091 0 4 1.79086 4 4zm-39 14c-2.7614 0-5-2.2386-5-5s2.2386-5 5-5h35.9666c-.6277 1.4573-.9666 3.1916-.9666 5s.3389 3.5427.9666 5z" fill-rule="evenodd"/></g></svg>