<svg id="Outline" height="512" viewBox="0 0 32 32" width="512" xmlns="http://www.w3.org/2000/svg"><g><path d="m31.37109 17.43311s-21.02017-8.40797-21.06341-8.42527c-.77433-.30973-1.62916.47595-1.29987 1.30027 0 0 8.41109 21.02676 8.42576 21.06343.34453.86128 1.63503.79331 1.89064-.09712l2.6543-9.29492s9.27662-2.65074 9.29587-2.65624c.89423-.25553.95964-1.54456.09671-1.89015zm-10.47558 2.77587c-.33301.09473-.5918.35449-.6875.68701l-2.00391 7.0166-6.47266-16.18115 16.18164 6.47266z"/><path d="m4.32422 2.91064c-.39063-.39063-1.02344-.39063-1.41406 0s-.39063 1.02393 0 1.41406c0 0 2.80188 2.8014 2.80858 2.80809.3795.37943 1.03639.37769 1.41407.00001.39063-.39063.39063-1.02393 0-1.41406z"/><path d="m13.44741 7.41031c.23898.01918.48845-.05907.70689-.2775l2.80859-2.80811c.39063-.39014.39063-1.02344 0-1.41406s-1.02344-.39063-1.41406 0c0 0-2.79295 2.79247-2.80853 2.80804-.65915.65905-.02524 1.63285.70711 1.69163z"/><path d="m5.71875 12.74023s-2.80224 2.80175-2.80858 2.80809c-.60269.60258-.14837 1.70704.70702 1.70704.25586 0 .51172-.09766.70703-.29297l2.80859-2.80811c.39063-.39014.39063-1.02344 0-1.41406s-1.02343-.39061-1.41406.00001z"/><path d="m5.56055 9.93652c0-.55225-.44727-1-1-1h-3.56055c-.55273 0-1 .44775-1 1s.44727 1 1 1h3.56055c.55273 0 1-.44775 1-1z"/><path d="m9.93652 5.56055c.55273 0 1-.44775 1-1v-3.56055c0-.55225-.44727-1-1-1s-1 .44775-1 1v3.56055c0 .55224.44727 1 1 1z"/></g></svg>