<svg fill="none" height="512" viewBox="0 0 32 32" width="512" xmlns="http://www.w3.org/2000/svg"><g clip-rule="evenodd" fill="rgb(0,0,0)" fill-rule="evenodd"><path d="m11.7554 24.7554c.3905-.3905 1.0237-.3905 1.4142 0l2.8304 2.8304 2.8304-2.8304c.3905-.3905 1.0237-.3905 1.4142 0s.3905 1.0237 0 1.4142l-3.5375 3.5375c-.3905.3906-1.0237.3906-1.4142 0l-3.5375-3.5375c-.3905-.3905-.3905-1.0237 0-1.4142z"/><path d="m16 19c.5523 0 1 .4477 1 1v9c0 .5523-.4477 1-1 1s-1-.4477-1-1v-9c0-.5523.4477-1 1-1z"/><path d="m15.2929 2.29289c.3905-.39052 1.0237-.39052 1.4142 0l3.5375 3.5375c.3905.39053.3905 1.02369 0 1.41422-.3905.39052-1.0237.39052-1.4142 0l-2.8304-2.8304-2.8304 2.8304c-.3905.39052-1.0237.39052-1.4142 0-.3905-.39053-.3905-1.02369 0-1.41422z"/><path d="m16 2c.5523 0 1 .44772 1 1v9c0 .5523-.4477 1-1 1s-1-.4477-1-1v-9c0-.55228.4477-1 1-1z"/><path d="m7.24461 11.7554c.39052.3905.39052 1.0237 0 1.4142l-2.8304 2.8304 2.8304 2.8304c.39052.3905.39052 1.0237 0 1.4142-.39053.3906-1.02369.3906-1.41422 0l-3.5375-3.5375c-.39052-.3905-.39052-1.0237 0-1.4142l3.5375-3.5375c.39053-.3905 1.02369-.3905 1.41422 0z"/><path d="m2 16c0-.5523.44772-1 1-1h9c.5523 0 1 .4477 1 1s-.4477 1-1 1h-9c-.55228 0-1-.4477-1-1z"/><path d="m24.7554 11.7554c.3905-.3905 1.0237-.3905 1.4142 0l3.5375 3.5375c.3905.3905.3905 1.0237 0 1.4142l-3.5375 3.5375c-.3905.3906-1.0237.3906-1.4142 0-.3905-.3905-.3905-1.0237 0-1.4142l2.8304-2.8304-2.8304-2.8304c-.3905-.3905-.3905-1.0237 0-1.4142z"/><path d="m19 16c0-.5523.4477-1 1-1h9c.5523 0 1 .4477 1 1s-.4477 1-1 1h-9c-.5523 0-1-.4477-1-1z"/></g></svg>