<?xml version="1.0" encoding="UTF-8" standalone="no"?>
<!-- Created with Inkscape (http://www.inkscape.org/) -->

<svg
   version="1.1"
   id="svg2520"
   xml:space="preserve"
   width="682.66669"
   height="682.66669"
   viewBox="0 0 682.66669 682.66669"
   xmlns="http://www.w3.org/2000/svg"
   xmlns:svg="http://www.w3.org/2000/svg"><defs
     id="defs2524"><clipPath
       clipPathUnits="userSpaceOnUse"
       id="clipPath2534"><path
         d="M 0,512 H 512 V 0 H 0 Z"
         id="path2532" /></clipPath><clipPath
       clipPathUnits="userSpaceOnUse"
       id="clipPath2554"><path
         d="M 0,512 H 512 V 0 H 0 Z"
         id="path2552" /></clipPath></defs><g
     id="g2526"
     transform="matrix(1.3333333,0,0,-1.3333333,0,682.66667)"><g
       id="g2528"><g
         id="g2530"
         clip-path="url(#clipPath2534)"><g
           id="g2536"
           transform="translate(453.0596,100.3662)"><path
             d="m 0,0 -50.516,50.516 49.809,35.045 -15.412,16.013 -155,27.119 27.721,-154.398 15.412,-16.014 35.045,49.809 50.515,-50.516 z"
             style="fill:none;stroke:#000000;stroke-width:30;stroke-linecap:butt;stroke-linejoin:miter;stroke-miterlimit:10;stroke-dasharray:none;stroke-opacity:1"
             id="path2538" /></g></g></g><g
       id="g2540"
       transform="translate(319,226)"><path
         d="M 0,0 V 93 H -126 V -33 h 91"
         style="fill:none;stroke:#000000;stroke-width:30;stroke-linecap:butt;stroke-linejoin:miter;stroke-miterlimit:10;stroke-dasharray:none;stroke-opacity:1"
         id="path2542" /></g><g
       id="g2544"
       transform="translate(319,319)"><path
         d="M 0,0 99.5,99.5"
         style="fill:none;stroke:#000000;stroke-width:30;stroke-linecap:butt;stroke-linejoin:miter;stroke-miterlimit:10;stroke-dasharray:none;stroke-opacity:1"
         id="path2546" /></g><g
       id="g2548"><g
         id="g2550"
         clip-path="url(#clipPath2554)"><g
           id="g2556"
           transform="translate(497,450.5)"><path
             d="M 0,0 C 0,25.682 -20.818,46.5 -46.5,46.5 -72.182,46.5 -93,25.682 -93,0 -93,-25.682 -72.182,-46.5 -46.5,-46.5 -20.818,-46.5 0,-25.682 0,0 Z"
             style="fill:none;stroke:#000000;stroke-width:30;stroke-linecap:butt;stroke-linejoin:miter;stroke-miterlimit:10;stroke-dasharray:none;stroke-opacity:1"
             id="path2558" /></g><g
           id="g2560"
           transform="translate(193,193)"><path
             d="M 0,0 -99.5,-99.5"
             style="fill:none;stroke:#000000;stroke-width:30;stroke-linecap:butt;stroke-linejoin:miter;stroke-miterlimit:10;stroke-dasharray:none;stroke-opacity:1"
             id="path2562" /></g><g
           id="g2564"
           transform="translate(15,61.5)"><path
             d="M 0,0 C 0,-25.682 20.818,-46.5 46.5,-46.5 72.182,-46.5 93,-25.682 93,0 93,25.682 72.182,46.5 46.5,46.5 20.818,46.5 0,25.682 0,0 Z"
             style="fill:none;stroke:#000000;stroke-width:30;stroke-linecap:butt;stroke-linejoin:miter;stroke-miterlimit:10;stroke-dasharray:none;stroke-opacity:1"
             id="path2566" /></g></g></g></g></svg>
