<?xml version="1.0" encoding="UTF-8"?>
<!-- Generator: Adobe Illustrator 24.3.0, SVG Export Plug-In . SVG Version: 6.00 Build 0)  -->
<svg xmlns="http://www.w3.org/2000/svg" xmlns:xlink="http://www.w3.org/1999/xlink" version="1.1" id="Capa_1" x="0px" y="0px" viewBox="0 0 512.001 512.001" style="enable-background:new 0 0 512.001 512.001;" xml:space="preserve" width="512" height="512">
<g>
	<g id="object_18_">
		<g>
			<path d="M280.994,256.001l225.83-225.83c6.902-6.901,6.902-18.091,0.001-24.993s-18.091-6.902-24.993-0.001L256.001,231.008     L30.171,5.176c-6.902-6.902-18.092-6.902-24.994,0s-6.902,18.092,0,24.994l225.831,225.83L5.176,481.832     c-6.901,6.902-6.901,18.092,0.001,24.993s18.092,6.901,24.993-0.001l225.83-225.83l225.831,225.83     c6.955,6.848,18.144,6.76,24.992-0.195c6.772-6.879,6.772-17.919,0-24.797L280.994,256.001z"/>
		</g>
	</g>
</g>















</svg>
