<?xml version="1.0" encoding="UTF-8"?>
<svg xmlns="http://www.w3.org/2000/svg" id="Layer_1" data-name="Layer 1" viewBox="0 0 24 24" width="512" height="512"><path d="M21,9.5h-.88959A8.51187,8.51187,0,0,0,14.5,3.88574V3A1.50164,1.50164,0,0,0,13,1.5H11A1.50164,1.50164,0,0,0,9.5,3v.88776A8.50916,8.50916,0,0,0,3.8891,9.5H3A1.50164,1.50164,0,0,0,1.5,11v2A1.50164,1.50164,0,0,0,3,14.5h.88892A8.50247,8.50247,0,0,0,9.5,20.11066V21A1.50164,1.50164,0,0,0,11,22.5h2A1.50164,1.50164,0,0,0,14.5,21v-.88916A8.49705,8.49705,0,0,0,20.11023,14.5H21A1.50164,1.50164,0,0,0,22.5,13V11A1.50164,1.50164,0,0,0,21,9.5ZM10.5,3a.50065.50065,0,0,1,.5-.5h2a.501.501,0,0,1,.5.5V5a.501.501,0,0,1-.5.5H11a.50065.50065,0,0,1-.5-.5ZM3,13.5a.50065.50065,0,0,1-.5-.5V11a.50065.50065,0,0,1,.5-.5H5a.50065.50065,0,0,1,.5.5v2a.50065.50065,0,0,1-.5.5ZM13.5,21a.501.501,0,0,1-.5.5H11a.50065.50065,0,0,1-.5-.5V19a.50065.50065,0,0,1,.5-.5h2a.501.501,0,0,1,.5.5Zm1-1.94366V19A1.50164,1.50164,0,0,0,13,17.5H11A1.50164,1.50164,0,0,0,9.5,19v.05591A7.49662,7.49662,0,0,1,4.9436,14.5H5A1.50164,1.50164,0,0,0,6.5,13V11A1.50164,1.50164,0,0,0,5,9.5H4.94373A7.50582,7.50582,0,0,1,9.5,4.944V5A1.50164,1.50164,0,0,0,11,6.5h2A1.50164,1.50164,0,0,0,14.5,5V4.94391A7.51352,7.51352,0,0,1,19.0567,9.5H19A1.50164,1.50164,0,0,0,17.5,11v2A1.50164,1.50164,0,0,0,19,14.5h.05652A7.49585,7.49585,0,0,1,14.5,19.05634ZM21.5,13a.501.501,0,0,1-.5.5H19a.501.501,0,0,1-.5-.5V11a.501.501,0,0,1,.5-.5h2a.501.501,0,0,1,.5.5Z"/></svg>
