<svg id="Capa_1" enable-background="new 0 0 605.634 605.634" height="512" viewBox="0 0 605.634 605.634" width="512" xmlns="http://www.w3.org/2000/svg"><g><path clip-rule="evenodd" d="m187.034 71.265v276.07c0 39.341 31.914 71.265 71.265 71.265h276.07c39.341 0 71.265-31.914 71.265-71.265v-276.07c0-39.341-31.914-71.265-71.265-71.265h-276.07c-39.341 0-71.265 31.914-71.265 71.265zm-26.719 115.769h-89.058c-39.418 0-71.257 31.881-71.257 71.265v276.07c0 39.341 31.914 71.265 71.265 71.265h276.07c39.34 0 71.265-31.91 71.265-71.257v-89.058h-160.251c-54.209 0-98.034-43.891-98.034-98.034zm62.345-115.769c0-19.673 15.972-35.64 35.64-35.64h276.07c19.673 0 35.64 15.972 35.64 35.64v276.07c0 19.673-15.972 35.64-35.64 35.64h-276.07c-19.673 0-35.64-15.972-35.64-35.64z" fill-rule="evenodd"/></g></svg>