<?xml version="1.0" encoding="UTF-8"?>
<svg xmlns="http://www.w3.org/2000/svg" viewBox="0 0 64 64" width="512" height="512"><g id="Layer_2" data-name="Layer 2"><path d="M11.74316,42.89844a.9999.9999,0,0,0-1.75973.94927c.67947.906,1.64807,3.89635,3.1024,2.959a1.00025,1.00025,0,0,0,.2296-1.39562A23.54175,23.54175,0,0,1,11.74316,42.89844Z"/><path d="M10.17578,39.27441a22.89258,22.89258,0,0,1-.75293-2.86425A.99993.99993,0,0,0,7.46,36.79108a25.00811,25.00811,0,0,0,.81736,3.11615A1.00075,1.00075,0,0,0,10.17578,39.27441Z"/><path d="M15.8877,48.4082A1.00011,1.00011,0,0,0,14.4854,49.834c.95.77592,1.8264,2.00392,3.03988,2.30874a1.0066,1.0066,0,0,0,.60552-1.79708A23.19938,23.19938,0,0,1,15.8877,48.4082Z"/><path d="M24.18262,53.63574a22.93047,22.93047,0,0,1-2.71289-1.18554,1.0002,1.0002,0,1,0-.918,1.77734,15.48517,15.48517,0,0,0,3.291,1.34872A1.00322,1.00322,0,0,0,24.18262,53.63574Z"/><path d="M43.77832,11.06641a1.00043,1.00043,0,0,0,.32227,1.377,23.15794,23.15794,0,0,1,2.43652,1.73828.99833.99833,0,0,0,1.40625-.14258c1.03021-1.3955-1.91934-2.55773-2.788-3.295A1.00134,1.00134,0,0,0,43.77832,11.06641Z"/><path d="M38.19336,7.78125a.99976.99976,0,1,0-.49414,1.9375c1.09982.22411,2.13614.74978,3.21481.99914A1.00326,1.00326,0,0,0,41.28608,8.79,24.58923,24.58923,0,0,0,38.19336,7.78125Z"/><path d="M56.99316,32.60645a25.40831,25.40831,0,0,0-.13183-3.24805.99978.99978,0,0,0-1.98827.209,23.34184,23.34184,0,0,1,.1201,2.98822,1.00032,1.00032,0,0,0,2,.05079Z"/><path d="M54.1123,25.6543a1.00029,1.00029,0,0,0,1.92383-.54883A24.81749,24.81749,0,0,0,54.93652,22.044a1.00039,1.00039,0,0,0-1.834.79888A22.44411,22.44411,0,0,1,54.1123,25.6543Z"/><path d="M50.90723,15.64844A1.00054,1.00054,0,0,0,49.39555,16.959a22.96489,22.96489,0,0,1,1.80757,2.38179,1,1,0,1,0,1.668-1.10352A25.22749,25.22749,0,0,0,50.90723,15.64844Z"/><path d="M54.40137,40.67383c1.66616.47822,1.7282-2.68718,2.1144-3.76262a1.00017,1.00017,0,0,0-1.96109-.39259,22.95056,22.95056,0,0,1-.77734,2.88665A.99838.99838,0,0,0,54.40137,40.67383Z"/><path d="M53.42206,44.85468c.1643-.273.33349-.54273.48712-.82245a.99222.99222,0,0,0-1.58569-1.16181l-3.11585-5.62793c3.51884-10.7495-4.72487-22.5676-15.8678-23.16571V9.0553c1.9915.34232,1.99433-2.24706,0-2.00116V5a3.00328,3.00328,0,0,0-3-3h-24a3.00328,3.00328,0,0,0-3,3V29A3.12043,3.12043,0,0,0,7,32c-.28043,1.99633,2.30255,1.99388,2,0h5A18.009,18.009,0,0,0,31.42847,49.971l-2.65229,4.7912c-.75087-.15181-1.74141-.27609-1.92655.70271a1.00353,1.00353,0,0,0,.8903,1.16924A3.30421,3.30421,0,0,0,30.27059,62l27.1425,0A3.24256,3.24256,0,0,0,60.25,57.1875ZM6.33984,30a1.00068,1.00068,0,0,1-1-1V5a1.00068,1.00068,0,0,1,1-1h24a1.00067,1.00067,0,0,1,1,1v9.0321A17.97148,17.97148,0,0,0,14.132,30ZM32,48c-21.21683-.87491-21.237-31.13643.00012-32A16.09668,16.09668,0,0,1,47.77753,34.65936l-1.0998-1.98651a3.25907,3.25907,0,0,0-5.67284-.00088L32.53,47.98126C32.353,47.98712,32.17816,48,32,48ZM58.4834,59.38867A1.21572,1.21572,0,0,1,57.41309,60H30.27051a1.24773,1.24773,0,0,1-1.08689-1.84377c.01393-.02518,1.01383-1.83152,1.02667-1.85465l12.54459-22.661a1.24154,1.24154,0,0,1,2.17285,0c.01947.03513,2.3037,4.16123,2.32155,4.1934L58.5,58.15625A1.216,1.216,0,0,1,58.4834,59.38867Z"/></g></svg>
