<svg id="Capa_1" enable-background="new 0 0 511.999 511.999" height="512" viewBox="0 0 511.999 511.999" width="512" xmlns="http://www.w3.org/2000/svg"><g><g><path d="m131.541 331.118-85.017-51.085 85.017-51.086 85.017 51.086z" fill="#68e7fd"/><path d="m46.524 280.033v104.676l85.017 51.086v-104.677z" fill="#00c1fc"/><path d="m216.558 280.033-85.017 51.085v104.677l85.017-51.086z" fill="#00dcfc"/><path d="m380.458 331.118-85.017-51.085 85.017-51.086 85.018 51.086z" fill="#68e7fd"/><path d="m295.441 280.033v104.676l85.017 51.086v-104.677z" fill="#00c1fc"/><path d="m465.476 280.033-85.018 51.085v104.677l85.018-51.086z" fill="#00dcfc"/><path d="m256 399.823-85.018-51.086 85.018-51.085 85.017 51.085z" fill="#00e499"/><path d="m170.982 348.737v104.676l85.018 51.086v-104.676z" fill="#00b594"/><path d="m341.017 348.737-85.017 51.086v104.676l85.017-51.086z" fill="#00d38e"/><path d="m256 109.67-85.018-51.085 85.018-51.086 85.017 51.086z" fill="#ff94be"/><path d="m170.982 58.585v104.676l85.018 51.086v-104.677z" fill="#ff5597"/><path d="m341.017 58.585-85.017 51.085v104.677l85.017-51.086z" fill="#ff77ab"/><path d="m121.336 183.225-85.018-51.085 85.018-51.086 85.017 51.086z" fill="#ffea76"/><path d="m36.318 132.14v104.676l85.018 51.085v-104.676z" fill="#ffc25e"/><path d="m206.353 132.14-85.017 51.085v104.676l85.017-51.085z" fill="#ffd250"/><path d="m390.663 183.225-85.017-51.085 85.017-51.086 85.018 51.086z" fill="#ffea76"/><path d="m305.646 132.14v104.676l85.017 51.085v-104.676z" fill="#ffc25e"/><path d="m475.681 132.14-85.018 51.085v104.676l85.018-51.085z" fill="#ffd250"/><path d="m256 251.93-85.018-51.086 85.018-51.086 85.017 51.086z" fill="#ffab56"/><path d="m170.982 200.844v104.676l85.018 51.086v-104.676z" fill="#ff7e3d"/><path d="m341.017 200.844-85.017 51.086v104.676l85.017-51.086z" fill="#ff982a"/></g><path d="m479.544 125.71-85.018-51.085c-2.379-1.428-5.348-1.428-7.727 0l-38.283 23.003v-39.044c0-2.584-1.246-4.962-3.637-6.429l-85.017-51.084c-2.379-1.428-5.349-1.428-7.726 0l-23.678 14.227c-3.55 2.134-4.699 6.741-2.565 10.291 2.135 3.552 6.74 4.698 10.292 2.566l19.813-11.905 70.456 42.335-70.456 42.336-70.456-42.336 25.122-15.095c3.55-2.134 4.699-6.741 2.565-10.292-2.135-3.551-6.743-4.698-10.292-2.565l-35.82 21.523c-2.258 1.386-3.637 3.777-3.637 6.429v39.044l-38.282-23.003c-2.379-1.428-5.35-1.428-7.727 0l-85.016 51.084c-2.255 1.383-3.637 3.773-3.637 6.429v104.677c0 2.633 1.381 5.072 3.637 6.429l30.365 18.245-20.16 12.114c-2.254 1.383-3.637 3.772-3.637 6.429v104.676c0 2.633 1.381 5.072 3.637 6.429l21.674 13.023c3.552 2.133 8.157.985 10.292-2.565 2.134-3.551.984-8.158-2.565-10.292l-18.037-10.838v-87.176l4.142 2.489 65.875 39.583v87.176l-26.499-15.923c-3.553-2.133-8.158-.984-10.292 2.565-2.134 3.551-.984 8.158 2.565 10.292l37.862 22.751c2.467 1.483 5.465 1.359 7.727 0l28.077-16.871v28.062c0 2.633 1.381 5.072 3.637 6.429l85.018 51.086c2.353 1.414 5.327 1.442 7.727 0l85.018-51.086c2.256-1.356 3.637-3.796 3.637-6.429v-28.062l28.078 16.871c2.434 1.463 5.428 1.382 7.727 0l85.018-51.086c2.256-1.356 3.637-3.796 3.637-6.429v-39.256c0-4.143-3.357-7.5-7.5-7.5s-7.5 3.357-7.5 7.5v35.013l-70.018 42.072v-87.176l65.875-39.583 4.142-2.489v22.094c0 4.143 3.357 7.5 7.5 7.5s7.5-3.357 7.5-7.5v-35.351c0-2.506-1.248-4.963-3.637-6.429l-20.16-12.114 30.365-18.246c2.256-1.356 3.637-3.796 3.637-6.429v-104.675c-.001-2.543-1.273-4.977-3.638-6.429zm-223.545 265.363-70.456-42.336 21.399-12.858 45.193 27.156c2.347 1.411 5.318 1.447 7.727 0l45.193-27.156 21.4 12.858zm0-232.565 70.456 42.336-70.456 42.335-70.456-42.335zm-127.163 28.961 69.687-41.875.33-.198v29.951l-31.734 19.069c-2.208 1.355-3.637 3.722-3.637 6.429v52.982l-34.646 20.818zm49.646 113.808v-87.176c12.863 7.729 52.649 31.635 70.018 42.072v87.177zm85.017 42.072v-87.177c11.646-6.997 53.746-32.295 70.018-42.072v87.176zm85.018-142.505c0-2.708-1.447-5.085-3.637-6.429l-31.734-19.069v-29.951l15.064 9.052 54.954 33.021v87.177l-34.646-20.819v-52.982zm42.146-111.04 70.456 42.335-70.456 42.336-70.456-42.336zm-88.881 35.906c-2.254 1.383-3.637 3.772-3.637 6.429v34.194l-34.646-20.819v-31.601l70.018-42.073v34.801zm-123.3-53.869c13.721 8.245 55.602 33.411 70.018 42.073v31.601l-34.646 20.819v-34.194c0-2.506-1.255-4.967-3.637-6.429l-31.734-19.069v-34.801zm-57.146 17.963 70.455 42.335-70.455 42.336-70.456-42.336zm-77.517 55.592c13.721 8.245 55.602 33.411 70.018 42.073v87.177l-70.018-42.072zm73.654 148.935c1.84 1.106 3.737 1.084 3.637 1.068 1.443.042 2.857-.327 4.089-1.068l38.282-23.004v31.848l-31.94 19.193-70.457-42.336 16.297-9.792zm21.568 128.207v-87.176l33.52-20.143 19.819 11.909-25.262 15.18c-2.208 1.355-3.637 3.722-3.637 6.429v59.115zm39.441-60.544 15.064 9.052 54.954 33.021v87.177l-70.018-42.072zm155.035 87.176-70.018 42.072v-87.177l54.954-33.021 15.064-9.052zm15-100.433c0-2.428-1.392-5.082-3.637-6.429l-25.263-15.179 19.82-11.909 33.521 20.143v87.176l-24.441-14.686zm102.397-68.705-70.457 42.336-31.941-19.193v-31.848l38.283 23.004c2.433 1.462 5.419 1.387 7.727 0l40.091-24.09zm17.267-47.459-70.018 42.072v-87.177l54.954-33.021 15.064-9.052z"/></g></svg>