<svg id="Capa_1" enable-background="new 0 0 512 512" height="512" viewBox="0 0 512 512" width="512" xmlns="http://www.w3.org/2000/svg"><g><path d="m127.785 333.386-87.583-52.627 87.583-52.627 87.584 52.627z" fill="#68e7fd"/><path d="m40.202 280.759v107.836l87.583 52.627v-107.836z" fill="#00c1fc"/><path d="m215.369 280.759-87.584 52.627v107.836l87.584-52.627z" fill="#00dcfc"/><path d="m384.215 333.386-87.584-52.627 87.584-52.627 87.583 52.627z" fill="#68e7fd"/><path d="m296.631 280.759v107.836l87.584 52.627v-107.836z" fill="#00c1fc"/><path d="m471.798 280.759-87.583 52.627v107.836l87.583-52.627z" fill="#00dcfc"/><path d="m256 404.164-87.583-52.627 87.583-52.627 87.583 52.627z" fill="#00e499"/><path d="m168.417 351.537v107.836l87.583 52.627v-107.836z" fill="#00b594"/><path d="m343.583 351.537-87.583 52.627v107.836l87.583-52.627z" fill="#00d38e"/><path d="m256 105.255-87.583-52.628 87.583-52.627 87.583 52.627z" fill="#ff94be"/><path d="m168.417 52.627v107.836l87.583 52.627v-107.835z" fill="#ff5597"/><path d="m343.583 52.627-87.583 52.628v107.835l87.583-52.627z" fill="#ff77ab"/><path d="m117.272 181.03-87.584-52.628 87.584-52.627 87.583 52.627z" fill="#ffea76"/><path d="m29.688 128.402v107.836l87.584 52.627v-107.835z" fill="#ffc25e"/><path d="m204.855 128.402-87.583 52.628v107.835l87.583-52.627z" fill="#ffd250"/><path d="m394.728 181.03-87.583-52.628 87.583-52.627 87.584 52.627z" fill="#ffea76"/><path d="m307.145 128.402v107.836l87.583 52.627v-107.835z" fill="#ffc25e"/><path d="m482.312 128.402-87.584 52.628v107.835l87.584-52.627z" fill="#ffd250"/><path d="m256 251.808-87.583-52.628 87.583-52.627 87.583 52.627z" fill="#ffab56"/><path d="m168.417 199.18v107.836l87.583 52.627v-107.835z" fill="#ff7e3d"/><path d="m343.583 199.18-87.583 52.628v107.835l87.583-52.627z" fill="#ff982a"/></g></svg>