<svg height="512" viewBox="0 0 64 64" width="512" xmlns="http://www.w3.org/2000/svg"><g id="Layer_2" data-name="Layer 2"><path d="m32.34 5v24a1.99947 1.99947 0 0 1 -2 2h-24a2.00587 2.00587 0 0 1 -2-2v-24a2.00583 2.00583 0 0 1 2-2h24a1.99943 1.99943 0 0 1 2 2z" fill="#fc8d98"/><path d="m29.34 3v24a1.99947 1.99947 0 0 1 -2 2h-23v-24a2.00583 2.00583 0 0 1 2-2z" fill="#fff" opacity=".2"/><path d="m49 32c.13857 14.298-17.115 22.26082-27.87011 13.05971-12.10089-9.96217-5.02066-30.07212 10.87037-30.05962a17.02409 17.02409 0 0 1 16.99974 16.99991z" fill="#4cd0f7"/><path d="m46 30c.24241 12.54706-13.94036 21.068-24.87017 15.05971-15.33126-13.05771.67474-37.3012 18.74037-28.11945a16.922 16.922 0 0 1 6.1298 13.05974z" fill="#fff" opacity=".2"/><path d="m57.41 61h-27.14a2.24115 2.24115 0 0 1 -2.13-2.94 2.196 2.196 0 0 1 .17-.39l13.57-24.51a2.23536 2.23536 0 0 1 3.92 0l13.57 24.51a2.24026 2.24026 0 0 1 -1.96 3.33z" fill="#fedb8e"/><path d="m54.41 58.06h-26.27a2.196 2.196 0 0 1 .17-.39l13.57-24.51a2.20735 2.20735 0 0 1 1.91-1.16l12.58 22.74a2.23469 2.23469 0 0 1 -1.96 3.32z" fill="#fff" opacity=".2"/><g fill="#383f40"><path d="m11.74316 43.0384a.9999.9999 0 0 0 -1.75973.94927c.67947.906 1.64807 3.89635 3.1024 2.959a1.00026 1.00026 0 0 0 .2296-1.39562 23.54175 23.54175 0 0 1 -1.57227-2.51265z"/><path d="m10.17578 39.41437a22.89258 22.89258 0 0 1 -.75293-2.86425.99993.99993 0 0 0 -1.96285.38088 25.00856 25.00856 0 0 0 .81736 3.11615 1.00075 1.00075 0 0 0 1.89842-.63278z"/><path d="m15.8877 48.54816a1.00011 1.00011 0 0 0 -1.4023 1.42584c.95.77592 1.8264 2.00392 3.03988 2.30874a1.0066 1.0066 0 0 0 .60552-1.79708 23.19938 23.19938 0 0 1 -2.2431-1.9375z"/><path d="m24.18262 53.7757a22.9289 22.9289 0 0 1 -2.71289-1.18555 1.00021 1.00021 0 0 0 -.918 1.77735 15.48517 15.48517 0 0 0 3.291 1.34872 1.00322 1.00322 0 0 0 .33989-1.94052z"/><path d="m43.77832 11.20637a1.00043 1.00043 0 0 0 .32227 1.377 23.15794 23.15794 0 0 1 2.43652 1.73828.99833.99833 0 0 0 1.40625-.14258c1.03021-1.3955-1.91934-2.55773-2.788-3.295a1.00134 1.00134 0 0 0 -1.37704.3223z"/><path d="m38.19336 7.92121a.99976.99976 0 1 0 -.49414 1.9375c1.09982.22411 2.13614.74978 3.21481.99914a1.00326 1.00326 0 0 0 .37205-1.92785 24.58923 24.58923 0 0 0 -3.09272-1.00879z"/><path d="m56.99316 32.7464a25.40823 25.40823 0 0 0 -.13183-3.248.99978.99978 0 0 0 -1.98827.209 23.34184 23.34184 0 0 1 .1201 2.98822 1.00032 1.00032 0 0 0 2 .05078z"/><path d="m54.1123 25.79426a1.00029 1.00029 0 0 0 1.92383-.54883 24.81823 24.81823 0 0 0 -1.09961-3.06153 1.00039 1.00039 0 0 0 -1.834.79889 22.44411 22.44411 0 0 1 1.00978 2.81147z"/><path d="m50.90723 15.7884a1.00054 1.00054 0 0 0 -1.51168 1.3106 22.96489 22.96489 0 0 1 1.80757 2.38179 1 1 0 1 0 1.668-1.10352 25.22749 25.22749 0 0 0 -1.96389-2.58887z"/><path d="m54.40137 40.81379c1.66616.47822 1.7282-2.68718 2.1144-3.76262a1.00017 1.00017 0 0 0 -1.96109-.39259 22.95056 22.95056 0 0 1 -.77734 2.88665.99838.99838 0 0 0 .62403 1.26856z"/><path d="m53.42206 44.99463c.1643-.27294.33349-.54272.48712-.82244a.99222.99222 0 0 0 -1.58569-1.16181l-3.11585-5.62793c3.51884-10.7495-4.72487-22.5676-15.8678-23.16571v-5.02148c1.9915.34232 1.99433-2.24706 0-2.00116v-2.0541a3.00328 3.00328 0 0 0 -3-3h-24a3.00328 3.00328 0 0 0 -3 3v24a3.12043 3.12043 0 0 0 3.66016 3c-.28043 1.99633 2.30255 1.99388 2 0h5a18.009 18.009 0 0 0 17.42847 17.971l-2.65229 4.7912c-.75087-.15181-1.74141-.27609-1.92655.70271a1.00351 1.00351 0 0 0 .8903 1.16923 3.30421 3.30421 0 0 0 2.53066 5.36586h27.1425a3.24256 3.24256 0 0 0 2.83691-4.81254zm-47.08222-14.85463a1.00068 1.00068 0 0 1 -1-1v-24a1.00068 1.00068 0 0 1 1-1h24a1.00067 1.00067 0 0 1 1 1v9.0321a17.97148 17.97148 0 0 0 -17.20784 15.9679zm25.66016 18c-21.21683-.87491-21.237-31.13643.00012-32a16.09668 16.09668 0 0 1 15.77741 18.65932l-1.0998-1.98651a3.25907 3.25907 0 0 0 -5.67284-.00088l-8.47489 15.30929c-.177.00586-.35184.01878-.53.01878zm26.4834 11.38863a1.21572 1.21572 0 0 1 -1.07031.61133h-27.14258a1.24773 1.24773 0 0 1 -1.08689-1.84377c.01393-.02518 1.01383-1.83152 1.02667-1.85465l12.54459-22.661a1.24154 1.24154 0 0 1 2.17285 0c.01947.03513 2.3037 4.16123 2.32155 4.1934l11.25072 20.32227a1.216 1.216 0 0 1 -.0166 1.23242z"/></g></g></svg>